<svg id="Layer_1" data-name="Layer 1" xmlns="http://www.w3.org/2000/svg" viewBox="0 0 14.25 16"><defs><style>.cls-1{fill:#fbab7e;}</style></defs><path class="cls-1" d="M6.23,0a1.05,1.05,0,0,0-1.1,1,1.05,1.05,0,0,0,1.1,1h.55V3.08a6.71,6.71,0,0,0-6,6.42c0,3.59,3.19,6.5,7.12,6.5S15,13.09,15,9.5A6.08,6.08,0,0,0,13.85,6l.83-.75a.94.94,0,0,0,0-1.42,1.17,1.17,0,0,0-1.55,0h0l-.74.68A7.37,7.37,0,0,0,9,3.08V2h.55a1.05,1.05,0,0,0,1.09-1A1.05,1.05,0,0,0,9.52,0ZM8.7,6v4a.83.83,0,0,1-1.65,0V6A.83.83,0,0,1,8.7,6Z" transform="translate(-0.75)"/></svg>